<?xml version="1.0" encoding="UTF-8"?>
<svg width="1869px" height="1987px" viewBox="0 0 1869 1987" version="1.1" xmlns="http://www.w3.org/2000/svg" xmlns:xlink="http://www.w3.org/1999/xlink">
    <!-- Generator: Sketch 53.2 (72643) - https://sketchapp.com -->
    <title>MSM_Logo_Transparent</title>
    <desc>Created with Sketch.</desc>
    <defs>
        <linearGradient x1="15.2693932%" y1="84.0991562%" x2="86.6445291%" y2="24.5691693%" id="linearGradient-1">
            <stop stop-color="#776FB1" offset="0%"></stop>
            <stop stop-color="#B0117D" offset="100%"></stop>
        </linearGradient>
        <linearGradient x1="13.2404913%" y1="80.8837756%" x2="85.1942847%" y2="21.9212099%" id="linearGradient-2">
            <stop stop-color="#776FB1" offset="0%"></stop>
            <stop stop-color="#B0117D" offset="100%"></stop>
        </linearGradient>
        <linearGradient x1="-256.862676%" y1="278.434243%" x2="236.064222%" y2="-88.0316054%" id="linearGradient-3">
            <stop stop-color="#776FB1" offset="0%"></stop>
            <stop stop-color="#B0117D" offset="100%"></stop>
        </linearGradient>
        <linearGradient x1="15.2359603%" y1="84.0991562%" x2="86.6798044%" y2="24.5691693%" id="linearGradient-4">
            <stop stop-color="#776FB1" offset="0%"></stop>
            <stop stop-color="#B0117D" offset="100%"></stop>
        </linearGradient>
        <linearGradient x1="-2.68445413%" y1="98.0107527%" x2="86.3755528%" y2="25.1775314%" id="linearGradient-5">
            <stop stop-color="#776FB1" offset="0%"></stop>
            <stop stop-color="#B0117D" offset="100%"></stop>
        </linearGradient>
        <polygon id="path-6" points="0 0.374590751 143.84403 0.374590751 143.84403 209.149429 0 209.149429"></polygon>
        <polygon id="path-8" points="0.2806288 0.0299352601 113.38522 0.0299352601 113.38522 190.317919 0.2806288 190.317919"></polygon>
    </defs>
    <g id="MSM_Logo_Transparent" stroke="none" stroke-width="1" fill="none" fill-rule="evenodd">
        <path d="M412.727986,211.492823 C219.328635,647.200552 -181.192903,1075.8694 94.0920554,1527.18593 L94.0920554,1527.18593 C369.380939,1978.51424 958.406984,2121.17616 1409.66298,1845.87477 L1409.66298,1845.87477 C1860.90327,1570.54197 2003.57209,981.482484 1728.27928,530.146326 L1728.27928,530.146326 C1547.01695,232.98633 1117.86822,0.0948624951 790.702622,0.0556049488 L790.702622,0.0556049488 C620.99636,0.0359761757 478.786799,62.6713912 412.727986,211.492823" id="Shape-1" fill-opacity="0.3" fill="url(#linearGradient-1)" fill-rule="nonzero"></path>
        <path d="M1776.31757,842.050743 C1674.00385,385.462755 1061.67548,-108.68733 761.98217,168.069073 C755.554453,174.002204 749.260156,180.257318 743.130672,186.909021 C657.223719,280.115326 556.153945,367.592684 458.937662,456.518966 C225.703345,669.864298 14.652109,891.545855 88.40997,1220.72271 C192.909429,1687.13904 655.485331,1980.45795 1121.58902,1875.91155 C1587.66917,1771.33766 1880.82096,1308.46707 1776.31757,842.050743" id="Shape-2" fill="url(#linearGradient-2)" opacity="0.4"></path>
        <path d="M763.063706,167.066325 C654.635817,179.365263 566.692319,229.701225 521.933404,328.995875 C502.890648,371.25635 480.243089,415.689057 457.538697,457.800382 C554.536128,369.141841 658.045124,279.683724 742.944776,186.02775 C749.076457,179.3788 756.633685,172.993075 763.063706,167.066325 Z" id="Fill-1" fill-opacity="0.620000005" fill="url(#linearGradient-3)"></path>
        <path d="M264.869946,1364.8387 C479.94984,1721.8724 943.806393,1836.94948 1300.87278,1621.89873 C1657.93523,1406.8362 1773.0122,943.0739 1557.93231,586.0245 C1405.18201,332.481275 1024.79404,136.686575 761.803031,167.1956 C755.37301,173.12235 749.076457,179.3788 742.944776,186.02775 C657.007031,279.195475 555.901031,366.636625 458.649904,455.5261 C297.239883,754.878 76.3187974,1051.85528 264.869946,1364.8387" id="Fill-4" fill-opacity="0.699999988" fill="url(#linearGradient-4)"></path>
        <path d="M902.212371,251.0556 C821.014983,251.29107 749.336747,280.77578 699.476016,349.124736 L699.476016,349.124736 C532.590555,577.997197 263.797171,781.270196 263.455659,1051.83646 L263.455659,1051.83646 L263.455659,1052.79796 C263.510615,1099.22863 271.471374,1147.63724 289.210364,1198.50258 L289.210364,1198.50258 C385.088836,1473.40541 642.883183,1645.76519 918.51073,1646.0556 L918.51073,1646.0556 L919.755089,1646.0556 C992.453935,1646.00066 1066.299,1633.97209 1138.81336,1608.69443 L1138.81336,1608.69443 C1486.7001,1487.41585 1670.37852,1107.14825 1549.08293,759.300888 L1549.08293,759.300888 C1458.9238,500.818133 1141.58863,251.750235 904.206486,251.0556 L904.206486,251.0556 L902.212371,251.0556 Z" id="Shape-4" fill="url(#linearGradient-5)" opacity="0.75" style="mix-blend-mode: multiply;"></path>
        <g id="Type" transform="translate(480.455659, 640.055600)">
            <path d="M0.1083024,191.427762 L17.4563064,9.83254798 C18.0331344,3.18384277 21.7923264,0.000784971098 28.1531304,0.000784971098 L43.4724264,0.000784971098 C49.2564024,0.000784971098 53.0155944,2.31644971 55.3307544,8.09776185 L118.350194,158.749415 L181.087106,8.09776185 C183.688718,2.31644971 187.157534,0.000784971098 193.227962,0.000784971098 L208.260806,0.000784971098 C214.911986,0.000784971098 218.667254,3.18384277 219.248006,9.83254798 L236.30171,191.427762 C236.882462,198.657346 233.12327,202.413432 226.189562,202.413432 L216.646394,202.413432 C209.995214,202.413432 205.94957,199.234299 205.372742,192.581669 L192.937586,46.5574208 L132.80621,191.718201 C130.494974,197.209074 126.735782,199.815178 120.665354,199.815178 L115.752506,199.815178 C109.678154,199.815178 106.209338,197.209074 103.898102,191.718201 L43.7628024,46.5574208 L31.0451184,192.581669 C30.4682904,199.234299 26.7090984,202.413432 20.0539944,202.413432 L10.5186744,202.413432 C3.5810424,202.413432 -0.4685256,198.657346 0.1083024,191.427762" id="Fill-1" fill="#FFFFFF"></path>
            <path d="M388.62472,130.124659 C388.62472,102.654595 367.8079,80.3888902 341.501404,80.3888902 C315.771736,80.3888902 294.668464,102.654595 294.668464,130.124659 C294.668464,157.594723 315.771736,179.569988 341.501404,179.569988 C367.8079,179.569988 388.62472,157.594723 388.62472,130.124659 M265.183528,129.83422 C265.183528,88.1954277 299.29486,54.3631734 341.501404,54.3631734 C384.002248,54.3631734 418.400032,88.4858671 418.400032,129.83422 C418.400032,171.763451 384.002248,205.595705 341.501404,205.595705 C299.29486,205.595705 265.183528,172.05389 265.183528,129.83422" id="Fill-3" fill="#FFFFFF"></path>
            <path d="M449.575034,192.006286 L449.575034,67.9573029 C449.575034,61.3046728 453.620678,57.5446613 460.267934,57.5446613 L468.939974,57.5446613 C475.591154,57.5446613 479.350346,61.3046728 479.350346,67.9573029 L479.350346,85.8821179 C485.707226,65.6416382 504.21281,54.3655283 527.631242,54.3655283 C559.721714,54.3655283 583.140146,75.1829618 583.140146,120.581765 L583.140146,192.006286 C583.140146,198.654991 579.090578,202.415002 572.439398,202.415002 L563.767358,202.415002 C557.116178,202.415002 553.36091,198.654991 553.36091,192.006286 L553.36091,120.86828 C553.36091,91.0904012 539.772098,80.3912451 524.448878,80.3912451 C509.416034,80.3912451 479.350346,90.5095225 479.350346,134.460054 L479.350346,192.006286 C479.350346,198.654991 475.591154,202.415002 468.939974,202.415002 L460.267934,202.415002 C453.620678,202.415002 449.575034,198.654991 449.575034,192.006286" id="Fill-5" fill="#FFFFFF"></path>
            <path d="M737.5158,111.038872 C729.993492,85.3035942 709.761348,79.8087965 693.857376,79.8087965 C677.094048,79.8087965 656.277228,86.4614266 647.314812,111.038872 L737.5158,111.038872 Z M615.22434,130.415883 C615.22434,88.1962127 648.178092,54.3639584 693.284472,54.3639584 C729.710964,54.3639584 762.951168,76.048785 767.000736,122.318906 C767.86794,129.258051 763.822296,133.018062 756.888588,133.018062 L644.7132,133.018062 C643.842072,159.907247 666.106848,179.570773 697.616568,179.570773 C711.782208,179.570773 724.503816,175.810762 736.938972,167.427271 C742.428648,163.957698 747.055044,164.248138 751.677516,168.871617 L753.7023,171.187282 C758.328696,176.101201 758.328696,182.176877 751.677516,187.66775 C734.910264,201.259525 715.5414,205.59649 697.326192,205.59649 C646.447608,205.59649 615.22434,171.764236 615.22434,130.415883 L615.22434,130.415883 Z" id="Fill-7" fill="#FFFFFF"></path>
            <path d="M814.681652,255.043782 L836.93858,196.920597 L781.429676,69.6885566 C778.25516,62.4628977 781.723976,57.5450538 789.528812,57.5450538 L801.09284,57.5450538 C807.163268,57.5450538 810.92246,60.1472329 812.947244,65.6420306 L853.132928,163.669221 L890.136248,65.9285451 C892.157108,60.1472329 896.497052,57.5450538 902.563556,57.5450538 L914.41796,57.5450538 C922.22672,57.5450538 925.695536,62.1724584 922.509248,69.6885566 L841.851428,259.090308 C839.544116,264.875545 835.784924,267.187285 829.714496,267.187285 L822.77294,267.187285 C814.96418,267.187285 811.789664,262.273366 814.681652,255.043782" id="Fill-9" fill="#FFFFFF"></path>
            <g id="Group-13" transform="translate(0.000000, 225.770873)">
                <mask id="mask-7" fill="white">
                    <use xlink:href="#path-6"></use>
                </mask>
                <g id="Clip-12"></g>
                <path d="M1.03005,168.087591 C-1.861938,161.7254 1.606878,156.811481 7.967682,155.076695 L16.357194,153.051469 C22.714074,151.607123 26.18289,153.918862 29.36133,159.990614 C36.589338,172.424556 51.912558,182.256319 72.148626,182.256319 C98.16867,182.256319 114.068718,169.531938 114.068718,152.184076 C114.068718,136.857516 101.34711,127.316192 84.870234,121.24444 L54.804546,111.122238 C16.643646,98.3978566 7.390854,75.5551977 7.390854,56.7590647 C7.390854,21.7729029 38.037294,0.374590751 73.01583,0.374590751 C104.815926,0.374590751 127.371078,15.6972266 136.619946,38.5438104 C139.221558,44.9060012 136.039194,49.8199202 129.67839,51.5547064 L122.454306,53.8664462 C116.089578,55.6051572 112.047858,53.2894925 109.15587,47.217741 C102.508614,33.9164058 90.073458,27.554215 73.306206,27.554215 C54.223794,27.554215 38.32767,37.9629318 38.32767,55.8916717 C38.32767,64.2790879 40.925358,75.2686832 64.057338,83.9426139 L94.119102,95.2187237 C128.234358,105.91788 143.84403,128.474024 143.84403,150.162776 C143.84403,186.593284 114.935922,209.149429 72.725454,209.149429 C36.879714,209.149429 11.440422,191.801568 1.03005,168.087591" id="Fill-11" fill="#FFFFFF" mask="url(#mask-7)"></path>
            </g>
            <path d="M174.75534,368.699747 L174.75534,297.279152 C174.75534,290.626522 178.514532,286.86651 185.165712,286.86651 L193.837752,286.86651 C200.485008,286.86651 204.534576,290.626522 204.534576,297.279152 L204.534576,368.413233 C204.534576,397.904597 217.833012,408.894192 233.152308,408.894192 C248.185152,408.894192 278.254764,398.485476 278.254764,354.821458 L278.254764,297.279152 C278.254764,290.626522 282.013956,286.86651 288.661212,286.86651 L297.333252,286.86651 C303.984432,286.86651 308.030076,290.626522 308.030076,297.279152 L308.030076,421.328135 C308.030076,427.980765 303.984432,431.740776 297.333252,431.740776 L288.661212,431.740776 C282.013956,431.740776 278.254764,427.980765 278.254764,421.328135 L278.254764,403.40332 C271.89396,423.643799 253.3923,434.919909 229.973868,434.919909 C197.88732,434.919909 174.75534,414.098551 174.75534,368.699747" id="Fill-14" fill="#FFFFFF"></path>
            <path d="M464.882166,359.159601 C464.882166,332.266491 448.114914,309.423832 418.626054,309.423832 C390.29085,309.423832 370.635534,330.531705 370.345158,359.159601 C370.635534,387.787497 390.29085,408.89537 418.626054,408.89537 C448.114914,408.89537 464.882166,386.34315 464.882166,359.159601 M341.150598,486.101202 L341.150598,297.276405 C341.150598,290.627699 345.196242,286.867688 351.839574,286.867688 L360.515538,286.867688 C367.166718,286.867688 370.92591,290.627699 370.92591,297.276405 L370.92591,309.714272 C384.514722,290.33726 403.59321,283.688555 422.962074,283.688555 C466.039746,283.688555 494.661402,317.520809 494.661402,359.159601 C494.661402,400.798393 466.039746,434.921087 422.962074,434.921087 C403.59321,434.921087 384.514722,428.268457 370.92591,408.89537 L370.92591,486.101202 C370.92591,492.753832 367.166718,496.509919 360.515538,496.509919 L351.839574,496.509919 C345.196242,496.509919 341.150598,492.753832 341.150598,486.101202" id="Fill-16" fill="#FFFFFF"></path>
            <path d="M644.240358,340.365038 C636.721974,314.625836 616.48983,309.134963 600.585858,309.134963 C583.82253,309.134963 563.00571,315.783668 554.03937,340.365038 L644.240358,340.365038 Z M521.952822,359.738125 C521.952822,317.518454 554.906574,283.690125 600.00903,283.690125 C636.435522,283.690125 669.67965,305.374951 673.729218,351.641148 C674.592498,358.580292 670.550778,362.340304 663.609222,362.340304 L551.441682,362.340304 C550.570554,389.233414 572.831406,408.893015 604.34505,408.893015 C618.51069,408.893015 631.232298,405.136928 643.667454,396.753437 C649.15713,393.27994 653.779602,393.570379 658.405998,398.197784 L660.430782,400.509524 C665.053254,405.427368 665.053254,411.499119 658.405998,416.993917 C641.638746,430.581766 622.269882,434.918732 604.054674,434.918732 C553.17609,434.918732 521.952822,401.086477 521.952822,359.738125 L521.952822,359.738125 Z" id="Fill-18" fill="#FFFFFF"></path>
            <path d="M703.943233,421.328527 L703.943233,297.279545 C703.943233,290.626914 707.988877,286.866903 714.640057,286.866903 L723.312097,286.866903 C729.963277,286.866903 733.722469,290.626914 733.722469,297.279545 L733.722469,319.25481 C738.635317,296.121712 755.116117,283.68777 772.460197,283.68777 L778.817077,283.974284 C784.891429,284.845602 785.762557,289.759521 785.762557,295.544758 L785.762557,303.92825 C785.762557,311.157834 782.866645,314.050452 777.953797,312.89262 C775.348261,312.315666 772.746649,312.025227 770.145037,312.025227 C759.738589,312.025227 733.722469,317.23351 733.722469,376.506677 L733.722469,421.328527 C733.722469,427.977232 729.963277,431.737244 723.312097,431.737244 L714.640057,431.737244 C707.988877,431.737244 703.943233,427.977232 703.943233,421.328527" id="Fill-20" fill="#FFFFFF"></path>
            <path d="M0.0549360004,663.289981 L17.40294,481.694767 C17.979768,475.046062 21.73896,471.866929 28.099764,471.866929 L43.41906,471.866929 C49.203036,471.866929 52.962228,474.178669 55.273464,479.959981 L118.296828,630.615559 L181.03374,479.959981 C183.631428,474.178669 187.104168,471.866929 193.174596,471.866929 L208.20744,471.866929 C214.85862,471.866929 218.613888,475.046062 219.190716,481.694767 L236.248344,663.289981 C236.829096,670.519565 233.069904,674.279576 226.132272,674.279576 L216.593028,674.279576 C209.941848,674.279576 205.896204,671.096518 205.319376,664.447813 L192.88422,518.41964 L132.752844,663.58042 C130.441608,669.075218 126.682416,671.677397 120.611988,671.677397 L115.695216,671.677397 C109.620864,671.677397 106.155972,669.075218 103.844736,663.58042 L43.709436,518.41964 L30.991752,664.447813 C30.411,671.096518 26.651808,674.279576 20.000628,674.279576 L10.465308,674.279576 C3.527676,674.279576 -0.521892,670.519565 0.0549360004,663.289981" id="Fill-22" fill="#FFFFFF"></path>
            <path d="M385.658568,601.699579 C385.368192,573.071683 366.003252,551.959885 337.381596,551.959885 C308.179188,551.959885 291.408012,574.806469 291.408012,601.699579 C291.408012,628.879203 308.179188,651.435347 337.381596,651.435347 C366.003252,651.435347 385.368192,630.327475 385.658568,601.699579 M261.6327,601.699579 C261.6327,560.060787 290.25828,526.228532 333.332028,526.228532 C352.700892,526.228532 371.492928,532.877238 385.08174,552.250324 L385.08174,539.816382 C385.08174,533.167677 389.127384,529.407665 395.778564,529.407665 L404.44668,529.407665 C411.09786,529.407665 414.857052,533.167677 414.857052,539.816382 L414.857052,663.86929 C414.857052,670.517995 411.09786,674.278006 404.44668,674.278006 L395.778564,674.278006 C389.127384,674.278006 385.08174,670.517995 385.08174,663.86929 L385.08174,651.435347 C371.492928,670.808434 352.700892,677.461064 333.332028,677.461064 C290.25828,677.461064 261.6327,643.338371 261.6327,601.699579" id="Fill-24" fill="#FFFFFF"></path>
            <path d="M449.305063,663.868505 L449.305063,539.819522 C449.305063,533.166892 453.350707,529.40688 460.001887,529.40688 L468.673927,529.40688 C475.321183,529.40688 479.080375,533.166892 479.080375,539.819522 L479.080375,561.794788 C483.997147,538.66169 500.474023,526.227747 517.818103,526.227747 L524.178907,526.518187 C530.253259,527.38558 531.120463,532.303424 531.120463,538.080811 L531.120463,546.468227 C531.120463,553.697811 528.228475,556.590429 523.311703,555.432597 C520.706167,554.855643 518.108479,554.565204 515.506867,554.565204 C505.100419,554.565204 479.080375,559.769562 479.080375,619.046655 L479.080375,663.868505 C479.080375,670.51721 475.321183,674.277221 468.673927,674.277221 L460.001887,674.277221 C453.350707,674.277221 449.305063,670.51721 449.305063,663.868505" id="Fill-26" fill="#FFFFFF"></path>
            <path d="M616.983077,646.229812 L588.651797,600.254054 L588.651797,663.868112 C588.651797,670.516817 584.892605,674.276829 578.249273,674.276829 L569.573309,674.276829 C562.926053,674.276829 558.876485,670.516817 558.876485,663.868112 L558.876485,475.624193 C558.876485,468.975488 562.926053,465.215476 569.573309,465.215476 L578.249273,465.215476 C584.892605,465.215476 588.651797,468.975488 588.651797,475.624193 L588.651797,590.131852 L632.887049,535.478239 C636.061565,531.145199 640.115057,529.406488 645.608657,529.406488 L656.595857,529.406488 C665.844725,529.406488 668.446337,535.191725 662.666285,542.134794 L618.144581,595.917089 L642.135917,632.638037 C650.521505,644.495025 654.567149,651.720684 667.288757,651.720684 C669.599993,651.720684 675.097517,651.43417 680.296817,649.118505 C684.346385,647.674158 686.657621,648.255037 688.682405,651.720684 L693.308801,660.979418 C694.752833,664.448991 693.308801,669.366835 686.076869,672.832482 C676.251173,677.459887 666.425477,677.459887 663.529565,677.459887 C635.779037,677.459887 625.949417,659.240708 616.983077,646.229812" id="Fill-28" fill="#FFFFFF"></path>
            <path d="M822.107822,582.903053 C814.589438,557.167776 794.357294,551.672978 778.453322,551.672978 C761.689994,551.672978 740.873174,558.321683 731.906834,582.903053 L822.107822,582.903053 Z M699.820286,602.280065 C699.820286,560.060394 732.774038,526.22814 777.880418,526.22814 C814.30691,526.22814 847.547114,547.912966 851.596682,594.179163 C852.463886,601.122232 848.418242,604.882244 841.476686,604.882244 L729.309146,604.882244 C728.438018,631.771429 750.702794,651.434955 782.212514,651.434955 C796.378154,651.434955 809.099762,647.674943 821.534918,639.287527 C827.024594,635.817955 831.647066,636.112319 836.273462,640.735799 L838.298246,643.047539 C842.924642,647.965383 842.924642,654.037134 836.273462,659.528007 C819.50621,673.119782 800.137346,677.460672 781.922138,677.460672 C731.043554,677.460672 699.820286,643.628417 699.820286,602.280065 L699.820286,602.280065 Z" id="Fill-30" fill="#FFFFFF"></path>
            <g id="Group-34" transform="translate(865.280000, 487.736191)">
                <mask id="mask-9" fill="white">
                    <use xlink:href="#path-8"></use>
                </mask>
                <g id="Clip-33"></g>
                <path d="M112.220577,141.874213 C111.643749,138.106351 109.034289,136.654155 105.553701,136.654155 L92.2121008,136.654155 C88.1507608,136.654155 86.4124288,139.264184 86.9931808,143.326409 C87.5739328,145.645999 87.5739328,147.679074 87.5739328,148.836906 C87.5739328,159.280947 79.4473288,164.504929 70.4613688,164.504929 C61.1811088,164.504929 53.6431048,158.409629 53.6431048,142.749455 L53.6431048,65.0059179 L93.3736048,65.0059179 C97.1445688,65.0059179 99.1732768,62.6863283 99.1732768,58.9145422 L99.1732768,47.6031087 C99.1732768,43.8352474 97.1445688,41.8021723 93.3736048,41.8021723 L53.6431048,41.8021723 L53.6431048,41.7236751 C53.6431048,41.7040509 53.6470288,41.6844266 53.6470288,41.6608775 L53.6470288,10.4739757 C53.6470288,10.4504266 53.6431048,10.4308023 53.6431048,10.4072532 L53.6431048,9.02177919 C53.6431048,3.51128208 50.4528928,0.0299352601 44.9396728,0.0299352601 L43.2091888,0.0299352601 L38.8496248,0.0299352601 L34.5057568,0.0299352601 C27.8349568,0.0299352601 23.7775408,3.80172139 23.7775408,10.4739757 L23.7775408,41.6608775 C23.7775408,41.7079757 23.7893128,41.7511491 23.7893128,41.8021723 L6.0763768,41.8021723 C2.3054128,41.8021723 0.2806288,43.8352474 0.2806288,47.6031087 L0.2806288,58.9145422 C0.2806288,62.6863283 2.3054128,65.0059179 6.0763768,65.0059179 L23.7696928,65.0059179 L23.7696928,141.002895 C23.7696928,178.426392 46.6780048,190.318704 69.8845408,190.318704 C97.7253208,190.318704 113.386005,174.360242 113.386005,152.608692 C113.386005,152.318253 113.386005,146.807756 112.220577,141.874213" id="Fill-32" fill="#FFFFFF" mask="url(#mask-9)"></path>
            </g>
        </g>
    </g>
</svg>